<svg id="그룹_1361" data-name="그룹 1361" xmlns="http://www.w3.org/2000/svg" width="99.222" height="61.657" viewBox="0 0 99.222 61.657">
  <path id="패스_394" data-name="패스 394" d="M9.055,5.189h7.7a4.861,4.861,0,0,0-.131-1.115h7.847a1.339,1.339,0,0,0,0-2.677h-9A3.3,3.3,0,0,0,12.9,0a3.3,3.3,0,0,0-2.562,1.4h-9C.6,1.4,0,1.714,0,2.453s.6,1.62,1.339,1.62H9.186a4.876,4.876,0,0,0-.131,1.115" transform="translate(0 0)" fill="#197aea"/>
  <path id="패스_395" data-name="패스 395" d="M296.2,1.116h-9A3.014,3.014,0,0,0,284.634,0a3.3,3.3,0,0,0-2.562,1.4h-9a1.339,1.339,0,0,0,0,2.677h7.847a4.862,4.862,0,0,0-.131,1.115h7.7a7.639,7.639,0,0,0-.132-1.4H296.2a1.339,1.339,0,0,0,0-2.677" transform="translate(-198.315 -0.001)" fill="#197aea"/>
  <path id="패스_396" data-name="패스 396" d="M169.188,66.758a5.344,5.344,0,1,0,5.344,5.344,5.344,5.344,0,0,0-5.344-5.344" transform="translate(-119.577 -48.722)" fill="#197aea"/>
  <path id="패스_397" data-name="패스 397" d="M105.9,26.831H98.1A23.315,23.315,0,0,1,86.76,23.746c-3.168-1.769-8.014-2.5-13.444-2.5s-10.275.729-13.44,2.5a23.313,23.313,0,0,1-11.34,3.084h-7.8V22.906H32.483V35.563a4.217,4.217,0,0,0,4.05,4.264,4.128,4.128,0,0,0,4.2-4.127V32.877h.269a35.23,35.23,0,0,1,14.179,3.016,2.1,2.1,0,0,1,.323,3.678L48.676,44.04a14.531,14.531,0,0,0-6.6,12.2v9.5a1.919,1.919,0,1,0,3.838,0v-9.5a10.739,10.739,0,0,1,4.861-8.987l.3-.194a11.7,11.7,0,0,1,14.066,1.074,12.534,12.534,0,0,0,16.354,0,11.7,11.7,0,0,1,14.066-1.074l.3.194a10.738,10.738,0,0,1,4.86,8.987v9.5a1.919,1.919,0,1,0,3.838,0v-9.5a14.577,14.577,0,0,0-6.6-12.2l-6.834-4.469a2.1,2.1,0,0,1,.323-3.678,35.243,35.243,0,0,1,14.18-3.016h.269v2.686a4.217,4.217,0,0,0,4.05,4.264,4.127,4.127,0,0,0,4.2-4.127V22.906H105.9Zm-32.58,20.5a8.723,8.723,0,1,1,8.723-8.723,8.733,8.733,0,0,1-8.723,8.723" transform="translate(-23.707 -15.507)" fill="#197aea"/>
  <path id="패스_398" data-name="패스 398" d="M137.45,195.358c.523-.407.236-1.064-.626-1.468a2.755,2.755,0,0,0-2.489-.016c-11.515,8.438-35.593,8.277-47.215-.3a2.747,2.747,0,0,0-2.481-.016c-.853.391-1.13,1.043-.6,1.458,12.9,10.11,40.637,10.3,53.412.344" transform="translate(-61.137 -141.054)" fill="#197aea"/>
  <path id="패스_399" data-name="패스 399" d="M154.189,176.981a2.744,2.744,0,0,0-2.3-.014c-7.111,4.312-20.43,4.227-27.6-.173a2.739,2.739,0,0,0-2.3-.015c-.73.335-.889.894-.34,1.248,8.431,5.435,24.541,5.54,32.9.207.545-.347.378-.909-.36-1.254" transform="translate(-88.543 -128.839)" fill="#197aea"/>
  <path id="패스_400" data-name="패스 400" d="M169.25,163.486c.555-.3.479-.784-.16-1.083a2.731,2.731,0,0,0-2.142-.013,13.273,13.273,0,0,1-10.7-.066,2.728,2.728,0,0,0-2.14-.013c-.633.29-.7.774-.143,1.08,4.091,2.241,11.228,2.286,15.288.095" transform="translate(-112.089 -118.304)" fill="#197aea"/>
  <path id="패스_402" data-name="패스 402" d="M249.62,184.976c-.687.453-.461,1.21.528,1.692a3.4,3.4,0,0,0,3.066.019c.668-.472.383-1.23-.612-1.693a3.442,3.442,0,0,0-2.981-.019" transform="translate(-181.89 -134.76)" fill="#197aea"/>
  <path id="패스_403" data-name="패스 403" d="M216.032,169.187c-.7.39-.6,1.041.252,1.455a3.39,3.39,0,0,0,2.84.018c.688-.405.533-1.057-.325-1.456a3.426,3.426,0,0,0-2.768-.017" transform="translate(-157.327 -123.27)" fill="#197aea"/>
  <path id="패스_409" data-name="패스 409" d="M105.1,185.762c.979-.469,1.193-1.223.5-1.684a3.433,3.433,0,0,0-2.975-.019c-.986.45-1.258,1.2-.585,1.683a3.394,3.394,0,0,0,3.059.019" transform="translate(-74.201 -134.093)" fill="#197aea"/>
  <path id="패스_410" data-name="패스 410" d="M137.089,168.7c-.85.389-.995,1.038-.3,1.451a3.385,3.385,0,0,0,2.837.018c.843-.4.936-1.054.229-1.452a3.422,3.422,0,0,0-2.764-.017" transform="translate(-99.509 -122.918)" fill="#197aea"/>
</svg>
