<svg id="ic-earth-pressed-24" xmlns="http://www.w3.org/2000/svg" width="24" height="24" viewBox="0 0 24 24">
  <rect id="Path" width="24" height="24" fill="rgba(0,0,0,0)"/>
  <path id="Icon" d="M180,4164a10,10,0,1,1,10-10A10.011,10.011,0,0,1,180,4164Zm-7.79-11.791h0A8.142,8.142,0,0,0,172,4154a8,8,0,0,0,7,7.931V4160a2,2,0,0,1-2-2v-1l-4.79-4.791ZM184,4158a1.992,1.992,0,0,1,1.9,1.39,7.989,7.989,0,0,0-2.9-12.8v.41a2,2,0,0,1-2,2h-2v2a1,1,0,0,1-1,1h-2v2h6a1,1,0,0,1,1,1v3Z" transform="translate(-168 -4142)" fill="#57a5ff"/>
</svg>
