<svg id="ic-float-locate-24" xmlns="http://www.w3.org/2000/svg" width="24" height="24" viewBox="0 0 24 24">
  <rect id="사각형_9381" data-name="사각형 9381" width="24" height="24" fill="none"/>
  <path id="my_location" d="M12,8a4,4,0,1,0,4,4A4,4,0,0,0,12,8Zm8.94,3A8.994,8.994,0,0,0,13,3.06V2a1,1,0,0,0-2,0V3.06A8.994,8.994,0,0,0,3.06,11H2a1,1,0,0,0,0,2H3.06A8.994,8.994,0,0,0,11,20.94V22a1,1,0,0,0,2,0V20.94A8.994,8.994,0,0,0,20.94,13H22a1,1,0,0,0,0-2ZM12,19a7,7,0,1,1,7-7A6.995,6.995,0,0,1,12,19Z" fill="#1d1d1d" fill-rule="evenodd"/>
</svg>
