<svg id="ic-gnb-pressed-24" xmlns="http://www.w3.org/2000/svg" width="24" height="24" viewBox="0 0 24 24">
  <path id="Mask" d="M3.948,6h16.1A.952.952,0,0,1,21,6.949v.1A.952.952,0,0,1,20.051,8H3.948A.951.951,0,0,1,3,7.051v-.1A.951.951,0,0,1,3.948,6Zm16.1,5H3.948A.951.951,0,0,0,3,11.949v.1A.951.951,0,0,0,3.948,13h16.1A.952.952,0,0,0,21,12.051v-.1A.952.952,0,0,0,20.051,11Zm0,5H3.948A.951.951,0,0,0,3,16.949v.1A.951.951,0,0,0,3.948,18h16.1A.952.952,0,0,0,21,17.051v-.1A.952.952,0,0,0,20.051,16Z" fill="#57a5ff" fill-rule="evenodd"/>
  <g id="그룹_1365" data-name="그룹 1365">
    <g id="ð_Color" data-name="ð¨ Color">
      <rect id="Base" width="24" height="24" fill="none"/>
    </g>
  </g>
</svg>
