<svg id="ic-nonefly-normal-24" xmlns="http://www.w3.org/2000/svg" width="24" height="24" viewBox="0 0 24 24">
  <rect id="Path" width="24" height="24" fill="none"/>
  <path id="local_airport" d="M21.154,14.682a1.085,1.085,0,0,0-.494-.9L13.089,9.057V3.512a1.512,1.512,0,1,0-3.024,0V9.057L2.494,13.785a1.071,1.071,0,0,0-.494.9A1.058,1.058,0,0,0,3.371,15.69l6.694-2.1v5.545L8.25,20.5a.483.483,0,0,0-.2.4V21.5a.507.507,0,0,0,.645.484l2.883-.827,2.883.827a.507.507,0,0,0,.645-.484V20.9a.483.483,0,0,0-.2-.4l-1.815-1.361V13.593l6.694,2.1A1.058,1.058,0,0,0,21.154,14.682Z" transform="translate(0.422)" fill="#fff" fill-rule="evenodd"/>
  <line id="선_553" data-name="선 553" x1="22" y2="19" transform="translate(1 3)" fill="none" stroke="red" stroke-width="2"/>
</svg>
