<svg id="ic-weather-drops" xmlns="http://www.w3.org/2000/svg" width="22.947" height="24.586" viewBox="0 0 22.947 24.586">
  <g id="drops-f" opacity="0.602">
    <path id="패스_8073" data-name="패스 8073" d="M12.2,39.785a4.541,4.541,0,0,0-.2-1.024C11.13,35.852,8.1,32,8.1,32S5.065,35.852,4.2,38.8a8.393,8.393,0,0,0-.2.983v.328a4.154,4.154,0,0,0,4.1,4.18,4.154,4.154,0,0,0,4.1-4.18Z" transform="translate(-4 -19.707)" fill="#fff"/>
    <path id="패스_8074" data-name="패스 8074" d="M48.2,39.785a4.541,4.541,0,0,0-.2-1.024C47.13,35.852,44.1,32,44.1,32s-3.032,3.852-3.893,6.8a4.131,4.131,0,0,0-.2,1.024v.328a4.1,4.1,0,1,0,8.2-.041Z" transform="translate(-25.249 -19.707)" fill="#fff"/>
    <path id="패스_8075" data-name="패스 8075" d="M30.2,9.785a4.131,4.131,0,0,0-.2-1.024C29.13,5.852,26.1,2,26.1,2S23.065,5.852,22.2,8.8A4.131,4.131,0,0,0,22,9.826v.328a4.1,4.1,0,1,0,8.2-.041Z" transform="translate(-14.624 -2)" fill="#fff"/>
  </g>
</svg>
