<svg id="ic-weather-sun-horizon" xmlns="http://www.w3.org/2000/svg" width="37" height="24.281" viewBox="0 0 37 24.281">
  <path id="패스_8027" data-name="패스 8027" d="M18.471,38.08a1.193,1.193,0,1,0,2.24-.825,5.739,5.739,0,0,1-.354-2,5.894,5.894,0,1,1,11.787,0,5.739,5.739,0,0,1-.354,2,1.226,1.226,0,0,0,.707,1.532,1,1,0,0,0,.413.059,1.209,1.209,0,0,0,1.12-.766,7.514,7.514,0,0,0,.471-2.829,8.251,8.251,0,0,0-16.5,0A9.184,9.184,0,0,0,18.471,38.08Z" transform="translate(-7.752 -18.043)" fill="#fff"/>
  <path id="패스_8028" data-name="패스 8028" d="M31.179,18.072a1.182,1.182,0,0,0,1.179-1.179V12.179a1.179,1.179,0,0,0-2.357,0v4.715A1.182,1.182,0,0,0,31.179,18.072Z" transform="translate(-12.68 -11)" fill="#fff"/>
  <path id="패스_8029" data-name="패스 8029" d="M50,40.179a1.182,1.182,0,0,0,1.179,1.179h4.715a1.179,1.179,0,0,0,0-2.357H51.179A1.182,1.182,0,0,0,50,40.179Z" transform="translate(-21.25 -22.846)" fill="#fff"/>
  <path id="패스_8030" data-name="패스 8030" d="M3.179,41.357H7.894a1.179,1.179,0,0,0,0-2.357H3.179a1.179,1.179,0,0,0,0,2.357Z" transform="translate(-0.82 -22.846)" fill="#fff"/>
  <path id="패스_8031" data-name="패스 8031" d="M35.844,49H1.156a1.179,1.179,0,0,0,0,2.357H35.844a1.179,1.179,0,0,0,0-2.357Z" transform="translate(0 -27.076)" fill="#fff"/>
  <path id="패스_8032" data-name="패스 8032" d="M14.413,25.063a1.139,1.139,0,0,0,1.65,0,1.139,1.139,0,0,0,0-1.65L12.7,20.054a1.167,1.167,0,0,0-1.65,1.65Z" transform="translate(-4.535 -14.699)" fill="#fff"/>
  <path id="패스_8033" data-name="패스 8033" d="M44.738,25.417a1.164,1.164,0,0,0,.825-.354L48.922,21.7a1.167,1.167,0,1,0-1.65-1.65l-3.418,3.359a1.139,1.139,0,0,0,0,1.65A1.2,1.2,0,0,0,44.738,25.417Z" transform="translate(-18.439 -14.699)" fill="#fff"/>
</svg>
