<svg id="ic-weather-sun-down" xmlns="http://www.w3.org/2000/svg" width="31.479" height="19.371" viewBox="0 0 31.479 19.371">
  <path id="패스_8034" data-name="패스 8034" d="M31.211,23.264a1.214,1.214,0,0,0,1.211-1.211V17.211a1.211,1.211,0,1,0-2.421,0v4.843A1.214,1.214,0,0,0,31.211,23.264Z" transform="translate(-15.471 -16)" fill="#fff"/>
  <path id="패스_8035" data-name="패스 8035" d="M7.211,41.686H36.268a1.211,1.211,0,1,0,0-2.421H30.154a8.436,8.436,0,0,0-16.708,0H7.211a1.211,1.211,0,1,0,0,2.421Zm14.529-7.264a6.04,6.04,0,0,1,5.933,4.843H15.807A6.04,6.04,0,0,1,21.739,34.421Z" transform="translate(-6 -22.314)" fill="#fff"/>
  <path id="패스_8036" data-name="패스 8036" d="M14.514,30.209a1.17,1.17,0,0,0,1.7,0,1.17,1.17,0,0,0,0-1.7l-3.451-3.451a1.2,1.2,0,0,0-1.7,1.7Z" transform="translate(-7.855 -19.434)" fill="#fff"/>
  <path id="패스_8037" data-name="패스 8037" d="M44.771,30.572a1.2,1.2,0,0,0,.848-.363l3.451-3.451a1.2,1.2,0,1,0-1.7-1.7l-3.511,3.451a1.17,1.17,0,0,0,0,1.7A1.232,1.232,0,0,0,44.771,30.572Z" transform="translate(-20.799 -19.434)" fill="#fff"/>
</svg>
